#!OML:ASF F:\VICON\USERDATA\INSTALL\rory3\rory3.ASF
:FULLY-SPECIFIED
:DEGREES
478
root -5.07479 17.5306 9.68416 -180.342 -1.82986 175.726
lowerback 11.072 0.739676 -3.89523
upperback 1.03577 0.39706 0.17093
thorax -5.15975 0.231437 2.31947
lowerneck -18.9075 -2.21626 -12.5574
upperneck 34.7414 -4.51832 7.81932
head 15.9675 -3.41006 4.48034
rclavicle -9.93923e-017 -1.47101e-014
rhumerus -38.3974 -22.836 -73.4746
rradius 33.9512
rwrist 7.48573
rhand -15.463 8.92908
rfingers 7.12502
rthumb 10.7182 -20.7775
lclavicle -9.93923e-017 -1.47101e-014
lhumerus -31.4634 -2.86918 88.1654
lradius 39.6191
lwrist 7.57757
lhand -23.4706 29.2769
lfingers 7.12502
lthumb 2.98863 59.2357
rfemur -11.9954 -3.9478 23.3491
rtibia 42.6358
rfoot -21.8742 3.41695
rtoes 10.47
lfemur -7.9617 -2.59413 -22.3569
ltibia 28.9614
lfoot -17.2818 -0.158162
ltoes -9.03829
479
root -5.14127 17.5164 9.68555 -180.453 -1.40375 175.512
lowerback 11.1027 0.904409 -3.67753
upperback 1.08641 0.626459 -0.0116797
thorax -5.13493 0.334124 1.96986
lowerneck -19.013 -2.24598 -12.6583
upperneck 34.7342 -4.47364 7.7925
head 15.9862 -3.39883 4.49654
rclavicle -5.51627e-015 8.74653e-015
rhumerus -38.3799 -22.6367 -73.6843
rradius 33.9228
rwrist 7.59167
rhand -15.4397 9.1101
rfingers 7.12502
rthumb 10.7406 -20.5953
lclavicle -5.51627e-015 8.74653e-015
lhumerus -31.5311 -2.72522 88.066
lradius 39.4202
lwrist 7.28655
lhand -23.453 28.8346
lfingers 7.12502
lthumb 3.00563 58.7932
rfemur -11.6223 -3.57158 23.1593
rtibia 42.0962
rfoot -22.4672 1.71335
rtoes 8.75001
lfemur -7.84346 -2.22703 -22.7758
ltibia 29.1291
lfoot -17.5828 -0.251169
ltoes -9.66992
480
root -5.20848 17.5019 9.68796 -180.563 -1.05638 175.368
lowerback 11.2387 1.02755 -3.31834
upperback 1.05372 0.816043 -0.199606
thorax -5.24866 0.419152 1.5396
lowerneck -19.0341 -2.25652 -12.6556
upperneck 34.724 -4.41236 7.64398
head 15.9741 -3.38759 4.44195
rclavicle -7.30534e-015 -9.14409e-015
rhumerus -38.5046 -22.2809 -73.8998
rradius 33.9732
rwrist 7.67543
rhand -15.0938 9.05901
rfingers 7.12502
rthumb 11.0743 -20.6288
lclavicle -7.30534e-015 -9.14409e-015
lhumerus -31.6732 -2.55172 87.9267
lradius 39.1671
lwrist 6.89935
lhand -23.3239 28.2121
lfingers 7.12502
lthumb 3.13027 58.1689
rfemur -11.2222 -3.19003 22.9105
rtibia 41.5986
rfoot -22.7187 1.65245
rtoes 9.90471
lfemur -7.78107 -1.91867 -23.1179
ltibia 29.3437
lfoot -17.9348 -0.306267
ltoes -10.0455
481
root -5.27577 17.4891 9.69127 -180.707 -0.656917 175.155
lowerback 11.3378 1.15657 -3.077
upperback 1.11587 0.99764 -0.364888
thorax -5.24071 0.497238 1.20147
lowerneck -19.1555 -2.2865 -12.5876
upperneck 34.6641 -4.30811 7.35681
head 15.9506 -3.35628 4.32229
rclavicle -5.56597e-015 -8.34896e-015
rhumerus -38.4148 -21.9042 -74.19
rradius 34.1081
rwrist 7.66042
rhand -15.0016 8.63187
rfingers 7.12502
rthumb 11.1632 -21.0512
lclavicle -5.56597e-015 -8.34896e-015
lhumerus -31.6869 -2.47585 87.8831
lradius 38.981
lwrist 6.77309
lhand -23.4425 27.4797
lfingers 7.12502
lthumb 3.01581 57.4381
rfemur -10.7844 -2.68645 22.457
rtibia 41.1547
rfoot -23.0015 2.21803
rtoes 11.8563
lfemur -7.72491 -1.63445 -23.5374
ltibia 29.6294
lfoot -18.2417 -0.578418
ltoes -8.08624
482
root -5.3507 17.4803 9.69998 -180.791 -0.0479006 175.083
lowerback 11.3673 1.32355 -2.60478
upperback 1.20609 1.26499 -0.487363
thorax -5.16059 0.612622 0.765941
lowerneck -19.3375 -2.32455 -12.7248
upperneck 34.6121 -4.20676 7.27529
head 15.9579 -3.32457 4.33112
rclavicle -2.78299e-014 -5.1684e-015
rhumerus -38.1503 -21.2942 -74.5943
rradius 34.2289
rwrist 7.30729
rhand -15.1165 8.60927
rfingers 7.12502
rthumb 11.0524 -21.0797
lclavicle -2.78299e-014 -5.1684e-015
lhumerus -31.6546 -2.45631 87.9324
lradius 38.8759
lwrist 6.86843
lhand -23.7986 26.1506
lfingers 7.12502
lthumb 2.67186 56.1136
rfemur -10.5149 -2.13126 22.0119
rtibia 40.772
rfoot -23.403 2.49995
rtoes 11.6827
lfemur -7.77086 -1.27437 -23.8438
ltibia 29.9935
lfoot -18.6238 -0.501334
ltoes -6.71441
483
root -5.42885 17.4729 9.71334 -180.686 0.582478 175.061
lowerback 11.3992 1.33746 -2.09116
upperback 1.12431 1.61681 -0.574476
thorax -5.2546 0.892755 0.317787
lowerneck -19.3057 -2.35025 -12.8641
upperneck 34.5349 -4.10119 7.10335
head 15.899 -3.31253 4.29815
rclavicle 6.85807e-015 -6.75868e-015
rhumerus -38.171 -20.4636 -74.8396
rradius 34.4823
rwrist 6.87199
rhand -14.9601 8.99403
rfingers 7.12502
rthumb 11.2032 -20.6868
lclavicle 6.85807e-015 -6.75868e-015
lhumerus -31.7473 -2.31281 88.0401
lradius 38.7156
lwrist 6.59023
lhand -23.9443 25.5163
lfingers 7.12502
lthumb 2.53112 55.4811
rfemur -10.5047 -1.74346 21.5257
rtibia 40.4484
rfoot -23.9601 2.74395
rtoes 9.14817
lfemur -8.1029 -0.860919 -24.1165
ltibia 30.4298
lfoot -19.1466 -0.00423168
ltoes -8.76029
484
root -5.50181 17.463 9.72344 -180.645 0.930721 175.021
lowerback 11.5398 1.45307 -1.65944
upperback 1.01876 1.81106 -0.612213
thorax -5.43411 0.976512 -0.00112328
lowerneck -19.224 -2.27007 -13.0052
upperneck 34.5324 -3.8536 6.90248
head 15.8435 -3.2563 4.28092
rclavicle 9.54166e-015 -2.38542e-015
rhumerus -38.2667 -19.8419 -74.8899
rradius 34.6262
rwrist 6.82126
rhand -14.7756 9.24941
rfingers 7.12502
rthumb 11.3812 -20.4217
lclavicle 9.54166e-015 -2.38542e-015
lhumerus -31.8411 -1.93315 88.126
lradius 38.4868
lwrist 5.92372
lhand -23.6081 25.6252
lfingers 7.12502
lthumb 2.85584 55.5858
rfemur -10.3631 -1.62627 21.0174
rtibia 40.1477
rfoot -24.5011 3.40146
rtoes 7.26698
lfemur -8.44614 -0.495842 -24.3586
ltibia 30.9634
lfoot -19.6173 0.0481728
ltoes -10.5215
485
root -5.57105 17.4562 9.73091 -180.702 1.11883 175.193
lowerback 11.6988 1.47933 -1.09018
upperback 0.987194 1.91556 -0.563545
thorax -5.54088 1.01395 -0.292532
lowerneck -19.2709 -2.13298 -13.008
upperneck 34.5245 -3.49536 6.60615
head 15.7953 -3.14097 4.21922
rclavicle -1.55052e-014 -2.78299e-015
rhumerus -38.2348 -19.3268 -74.9458
rradius 34.6787
rwrist 6.93439
rhand -14.7552 9.16464
rfingers 7.12502
rthumb 11.4008 -20.5054
lclavicle -1.55052e-014 -2.78299e-015
lhumerus -31.9948 -1.38704 88.1567
lradius 38.4623
lwrist 5.35103
lhand -23.173 25.677
lfingers 7.12502
lthumb 3.27605 55.6315
rfemur -10.1444 -1.63749 20.7754
rtibia 39.8589
rfoot -24.7781 4.49087
rtoes 6.80004
lfemur -8.67936 -0.257054 -24.3282
ltibia 31.5814
lfoot -20.1577 -0.228907
ltoes -11.0652
486
root -5.63828 17.453 9.73735 -180.71 1.23067 175.453
lowerback 11.7848 1.46808 -0.499595
upperback 0.961868 1.97935 -0.445274
thorax -5.60043 1.03073 -0.514407
lowerneck -19.3814 -2.06371 -13.0498
upperneck 34.5075 -3.22376 6.3383
head 15.7738 -3.06037 4.16068
rclavicle -6.31141e-015 -7.15625e-015
rhumerus -38.1164 -18.7661 -74.9634
rradius 34.7248
rwrist 7.03621
rhand -14.6343 9.26058
rfingers 7.12502
rthumb 11.5174 -20.403
lclavicle -6.31141e-015 -7.15625e-015
lhumerus -32.1715 -0.660812 88.1954
lradius 38.4339
lwrist 4.6093
lhand -23.1477 25.8739
lfingers 7.12502
lthumb 3.30049 55.8281
rfemur -9.98526 -1.79317 20.6262
rtibia 39.5726
rfoot -24.903 5.81453
rtoes 7.67926
lfemur -9.00949 0.044087 -24.1598
ltibia 32.2582
lfoot -20.7611 -0.548102
ltoes -12.2048
487
root -5.70169 17.4524 9.74146 -180.732 1.32051 175.644
lowerback 11.8373 1.4985 -0.0974796
upperback 0.972239 2.08023 -0.294563
thorax -5.6101 1.07185 -0.600806
lowerneck -19.4957 -2.09942 -13.1542
upperneck 34.5023 -3.11252 6.11094
head 15.7851 -3.05132 4.10072
rclavicle 4.47266e-016 1.51076e-014
rhumerus -37.9883 -18.3446 -74.8197
rradius 34.7889
rwrist 7.07115
rhand -14.5167 9.53608
rfingers 7.12502
rthumb 11.6309 -20.1211
lclavicle 4.47266e-016 1.51076e-014
lhumerus -32.1576 0.210472 88.313
lradius 38.1576
lwrist 3.79062
lhand -23.0357 25.8596
lfingers 7.12502
lthumb 3.40858 55.8121
rfemur -9.81707 -2.23102 20.4153
rtibia 39.3171
rfoot -25.0622 6.7515
rtoes 8.03394
lfemur -9.33978 0.208765 -24.0426
ltibia 32.9235
lfoot -21.2632 -0.735273
ltoes -13.6741
488
root -5.75994 17.454 9.74529 -180.739 1.35479 175.931
lowerback 11.8769 1.51325 0.319371
upperback 0.960994 2.1626 -0.138893
thorax -5.63447 1.10325 -0.687328
lowerneck -19.5241 -2.06153 -12.9816
upperneck 34.5393 -3.00202 5.80753
head 15.7874 -3.02585 3.9585
rclavicle 2.77305e-014 1.90833e-014
rhumerus -37.9702 -17.7615 -74.7823
rradius 34.9599
rwrist 6.83676
rhand -14.6026 9.57312
rfingers 7.12502
rthumb 11.548 -20.0887
lclavicle 2.77305e-014 1.90833e-014
lhumerus -32.1925 0.841606 88.4595
lradius 37.8972
lwrist 3.62294
lhand -23.1838 25.4119
lfingers 7.12502
lthumb 3.26559 55.3667
rfemur -9.69291 -2.64981 20.4154
rtibia 39.0766
rfoot -25.0861 6.95493
rtoes 7.16809
lfemur -9.6552 0.307844 -23.7693
ltibia 33.5638
lfoot -21.7743 -0.978603
ltoes -17.0043
489
root -5.81682 17.461 9.7473 -180.713 1.42816 176.336
lowerback 11.8757 1.53727 0.718385
upperback 0.917774 2.25932 0.10737
thorax -5.67324 1.1423 -0.670574
lowerneck -19.4654 -2.02159 -12.8678
upperneck 34.5848 -2.90994 5.53973
head 15.7781 -3.01757 3.83786
rclavicle 2.52457e-014 2.94201e-014
rhumerus -37.9208 -17.0456 -74.6749
rradius 35.0185
rwrist 6.65488
rhand -14.6211 9.48989
rfingers 7.12502
rthumb 11.5301 -20.173
lclavicle 2.52457e-014 2.94201e-014
lhumerus -32.3939 1.60068 88.6359
lradius 37.7498
lwrist 3.4913
lhand -23.5518 25.0245
lfingers 7.12502
lthumb 2.91024 54.9844
rfemur -9.6693 -2.92497 20.6174
rtibia 38.844
rfoot -24.8431 7.06849
rtoes 6.76581
lfemur -9.97016 0.38712 -23.3302
ltibia 34.1767
lfoot -22.3268 -1.36109
ltoes -21.016
490
root -5.8773 17.4747 9.75087 -180.803 1.41681 176.78
lowerback 12.0057 1.52098 1.13671
upperback 0.906465 2.31649 0.397938
thorax -5.7531 1.16427 -0.61568
lowerneck -19.4239 -2.00328 -12.8074
upperneck 34.6118 -2.82525 5.27958
head 15.7671 -3.01601 3.72842
rclavicle 5.76476e-015 -7.95139e-015
rhumerus -37.8079 -16.6181 -74.3759
rradius 34.959
rwrist 6.78118
rhand -14.4692 9.3681
rfingers 7.12502
rthumb 11.6767 -20.2865
lclavicle 5.76476e-015 -7.95139e-015
lhumerus -32.5413 2.61804 88.799
lradius 37.5581
lwrist 3.04573
lhand -23.7008 24.6287
lfingers 7.12502
lthumb 2.76636 54.5905
rfemur -9.54573 -3.28694 20.8539
rtibia 38.5931
rfoot -24.5055 7.50716
rtoes 7.27157
lfemur -10.1693 0.251675 -22.8381
ltibia 34.7682
lfoot -22.8066 -1.97531
ltoes -23.2187
491
root -5.93985 17.486 9.75251 -180.935 1.29551 177.07
lowerback 12.0469 1.49146 1.44248
upperback 0.997356 2.34199 0.618138
thorax -5.67747 1.17754 -0.561156
lowerneck -19.5332 -2.05406 -12.8049
upperneck 34.6346 -2.84706 5.19791
head 15.8071 -3.03266 3.68918
rclavicle -2.41523e-014 -1.43125e-014
rhumerus -37.5572 -16.4085 -74.075
rradius 34.8446
rwrist 6.94063
rhand -14.4853 9.08586
rfingers 7.12502
rthumb 11.6611 -20.5696
lclavicle -2.41523e-014 -1.43125e-014
lhumerus -32.4562 3.50914 88.99
lradius 37.2929
lwrist 2.84896
lhand -23.7555 24.5185
lfingers 7.12502
lthumb 2.71351 54.481
rfemur -9.28795 -3.67865 20.9098
rtibia 38.3408
rfoot -24.3967 7.7175
rtoes 7.05726
lfemur -10.3171 0.00699551 -22.4834
ltibia 35.3158
lfoot -23.1522 -2.80664
ltoes -23.7383
